<svg xmlns="http://www.w3.org/2000/svg" xmlns:xlink="http://www.w3.org/1999/xlink" width="500" zoomAndPan="magnify" viewBox="0 0 375 374.999991" height="500" preserveAspectRatio="xMidYMid meet" version="1.0"><defs><g/><clipPath id="803856be69"><path d="M 130.375 166.46875 L 172.796875 166.46875 L 172.796875 208.890625 L 130.375 208.890625 Z M 130.375 166.46875 " clip-rule="nonzero"/></clipPath><clipPath id="dba55cd32c"><path d="M 151.585938 166.46875 C 139.871094 166.46875 130.375 175.964844 130.375 187.679688 C 130.375 199.394531 139.871094 208.890625 151.585938 208.890625 C 163.300781 208.890625 172.796875 199.394531 172.796875 187.679688 C 172.796875 175.964844 163.300781 166.46875 151.585938 166.46875 Z M 151.585938 166.46875 " clip-rule="nonzero"/></clipPath><clipPath id="e25e41b41f"><path d="M 114.601562 178.453125 L 188.703125 178.453125 L 188.703125 212.878906 L 114.601562 212.878906 Z M 114.601562 178.453125 " clip-rule="nonzero"/></clipPath><clipPath id="9df99ed529"><path d="M 151.585938 178.453125 L 188.570312 212.878906 L 114.601562 212.878906 Z M 151.585938 178.453125 " clip-rule="nonzero"/></clipPath><clipPath id="ccdd597fc0"><path d="M 146.441406 191.859375 L 152 191.859375 L 152 197 L 146.441406 197 Z M 146.441406 191.859375 " clip-rule="nonzero"/></clipPath><clipPath id="2d4f9bef51"><path d="M 152 191.859375 L 156.941406 191.859375 L 156.941406 197 L 152 197 Z M 152 191.859375 " clip-rule="nonzero"/></clipPath><clipPath id="9ea4e809a0"><path d="M 146.441406 197 L 152 197 L 152 202.359375 L 146.441406 202.359375 Z M 146.441406 197 " clip-rule="nonzero"/></clipPath><clipPath id="84c7996869"><path d="M 152 197 L 156.941406 197 L 156.941406 202.359375 L 152 202.359375 Z M 152 197 " clip-rule="nonzero"/></clipPath></defs><g clip-path="url(#803856be69)"><g clip-path="url(#dba55cd32c)"><path fill="#000000" d="M 130.375 166.46875 L 172.796875 166.46875 L 172.796875 208.890625 L 130.375 208.890625 Z M 130.375 166.46875 " fill-opacity="1" fill-rule="nonzero"/></g></g><g clip-path="url(#e25e41b41f)"><g clip-path="url(#9df99ed529)"><path fill="#ffffff" d="M 114.601562 178.453125 L 188.566406 178.453125 L 188.566406 212.878906 L 114.601562 212.878906 Z M 114.601562 178.453125 " fill-opacity="1" fill-rule="nonzero"/></g></g><g clip-path="url(#ccdd597fc0)"><path fill="#000000" d="M 150.847656 191.859375 L 146.648438 191.859375 C 146.535156 191.859375 146.441406 191.953125 146.441406 192.066406 L 146.441406 196.265625 C 146.441406 196.382812 146.535156 196.476562 146.648438 196.476562 L 150.847656 196.476562 C 150.964844 196.476562 151.058594 196.382812 151.058594 196.265625 L 151.058594 192.066406 C 151.058594 191.953125 150.964844 191.859375 150.847656 191.859375 Z M 150.847656 191.859375 " fill-opacity="1" fill-rule="nonzero"/></g><g clip-path="url(#2d4f9bef51)"><path fill="#000000" d="M 156.730469 191.859375 L 152.53125 191.859375 C 152.414062 191.859375 152.320312 191.953125 152.320312 192.066406 L 152.320312 196.265625 C 152.320312 196.382812 152.414062 196.476562 152.53125 196.476562 L 156.730469 196.476562 C 156.84375 196.476562 156.941406 196.382812 156.941406 196.265625 L 156.941406 192.066406 C 156.941406 191.953125 156.84375 191.859375 156.730469 191.859375 Z M 156.730469 191.859375 " fill-opacity="1" fill-rule="nonzero"/></g><g clip-path="url(#9ea4e809a0)"><path fill="#000000" d="M 150.847656 197.738281 L 146.648438 197.738281 C 146.535156 197.738281 146.441406 197.832031 146.441406 197.949219 L 146.441406 202.148438 C 146.441406 202.261719 146.535156 202.359375 146.648438 202.359375 L 150.847656 202.359375 C 150.964844 202.359375 151.058594 202.261719 151.058594 202.148438 L 151.058594 197.949219 C 151.058594 197.832031 150.964844 197.738281 150.847656 197.738281 Z M 150.847656 197.738281 " fill-opacity="1" fill-rule="nonzero"/></g><g clip-path="url(#84c7996869)"><path fill="#000000" d="M 156.730469 197.738281 L 152.53125 197.738281 C 152.414062 197.738281 152.320312 197.832031 152.320312 197.949219 L 152.320312 202.148438 C 152.320312 202.261719 152.414062 202.359375 152.53125 202.359375 L 156.730469 202.359375 C 156.84375 202.359375 156.941406 202.261719 156.941406 202.148438 L 156.941406 197.949219 C 156.941406 197.832031 156.84375 197.738281 156.730469 197.738281 Z M 156.730469 197.738281 " fill-opacity="1" fill-rule="nonzero"/></g><g fill="#000000" fill-opacity="1"><g transform="translate(76.982636, 212.876789)"><g><path d="M 17.5625 -23.453125 L 17.5625 0 L 4.25 0 L 4.25 -58.453125 L 17.5625 -58.453125 L 17.5625 -35.140625 L 36.40625 -35.140625 L 36.40625 -58.453125 L 49.734375 -58.453125 L 49.734375 0 L 36.40625 0 L 36.40625 -23.453125 Z M 17.5625 -23.453125 "/></g></g></g><g fill="#000000" fill-opacity="1"><g transform="translate(171.95702, 212.876789)"><g><path d="M 20.046875 -37.40625 C 22.128906 -37.40625 24.1875 -37.164062 26.21875 -36.6875 C 28.25 -36.21875 29.757812 -35.75 30.75 -35.28125 L 32.234375 -34.578125 L 28.125 -26.359375 C 25.289062 -27.867188 22.597656 -28.625 20.046875 -28.625 C 18.628906 -28.625 17.625 -28.46875 17.03125 -28.15625 C 16.445312 -27.851562 16.15625 -27.273438 16.15625 -26.421875 C 16.15625 -26.234375 16.175781 -26.046875 16.21875 -25.859375 C 16.269531 -25.671875 16.363281 -25.492188 16.5 -25.328125 C 16.644531 -25.160156 16.773438 -25.015625 16.890625 -24.890625 C 17.015625 -24.773438 17.21875 -24.644531 17.5 -24.5 C 17.78125 -24.363281 18.003906 -24.257812 18.171875 -24.1875 C 18.335938 -24.125 18.609375 -24.019531 18.984375 -23.875 C 19.359375 -23.726562 19.640625 -23.617188 19.828125 -23.546875 C 20.023438 -23.484375 20.347656 -23.378906 20.796875 -23.234375 C 21.242188 -23.097656 21.582031 -23.003906 21.8125 -22.953125 C 23.28125 -22.523438 24.554688 -22.050781 25.640625 -21.53125 C 26.734375 -21.007812 27.878906 -20.300781 29.078125 -19.40625 C 30.285156 -18.507812 31.21875 -17.375 31.875 -16 C 32.539062 -14.632812 32.875 -13.078125 32.875 -11.328125 C 32.875 -3.066406 27.132812 1.0625 15.65625 1.0625 C 13.0625 1.0625 10.59375 0.660156 8.25 -0.140625 C 5.914062 -0.941406 4.226562 -1.742188 3.1875 -2.546875 L 1.625 -3.828125 L 6.734375 -12.390625 C 7.109375 -12.066406 7.601562 -11.679688 8.21875 -11.234375 C 8.832031 -10.785156 9.941406 -10.171875 11.546875 -9.390625 C 13.148438 -8.609375 14.546875 -8.21875 15.734375 -8.21875 C 18.328125 -8.21875 19.625 -9.09375 19.625 -10.84375 C 19.625 -11.644531 19.289062 -12.269531 18.625 -12.71875 C 17.96875 -13.164062 16.847656 -13.671875 15.265625 -14.234375 C 13.679688 -14.804688 12.441406 -15.328125 11.546875 -15.796875 C 9.273438 -16.972656 7.476562 -18.304688 6.15625 -19.796875 C 4.84375 -21.285156 4.1875 -23.257812 4.1875 -25.71875 C 4.1875 -29.394531 5.613281 -32.257812 8.46875 -34.3125 C 11.320312 -36.375 15.179688 -37.40625 20.046875 -37.40625 Z M 20.046875 -37.40625 "/></g></g></g><g fill="#000000" fill-opacity="1"><g transform="translate(202.561791, 212.876789)"><g><path d="M 6.375 -36.34375 L 6.375 -49.875 L 18.921875 -49.875 L 18.921875 -36.34375 L 26.5625 -36.34375 L 26.5625 -26.78125 L 18.921875 -26.78125 L 18.921875 -15.234375 C 18.921875 -11.878906 19.863281 -10.203125 21.75 -10.203125 C 22.21875 -10.203125 22.710938 -10.296875 23.234375 -10.484375 C 23.753906 -10.671875 24.15625 -10.859375 24.4375 -11.046875 L 24.859375 -11.328125 L 27.984375 -1.203125 C 25.285156 0.304688 22.21875 1.0625 18.78125 1.0625 C 16.414062 1.0625 14.378906 0.648438 12.671875 -0.171875 C 10.972656 -1.003906 9.6875 -2.113281 8.8125 -3.5 C 7.945312 -4.894531 7.320312 -6.359375 6.9375 -7.890625 C 6.5625 -9.429688 6.375 -11.078125 6.375 -12.828125 L 6.375 -26.78125 L 1.140625 -26.78125 L 1.140625 -36.34375 Z M 6.375 -36.34375 "/></g></g></g><g fill="#004aad" fill-opacity="1"><g transform="translate(226.190834, 212.876789)"><g><path d="M 5.453125 -56.59375 C 6.921875 -58.0625 8.671875 -58.796875 10.703125 -58.796875 C 12.734375 -58.796875 14.476562 -58.0625 15.9375 -56.59375 C 17.40625 -55.132812 18.140625 -53.390625 18.140625 -51.359375 C 18.140625 -49.328125 17.40625 -47.578125 15.9375 -46.109375 C 14.476562 -44.648438 12.734375 -43.921875 10.703125 -43.921875 C 8.671875 -43.921875 6.921875 -44.648438 5.453125 -46.109375 C 3.992188 -47.578125 3.265625 -49.328125 3.265625 -51.359375 C 3.265625 -53.390625 3.992188 -55.132812 5.453125 -56.59375 Z M 4.25 -36.34375 L 4.25 0 L 16.796875 0 L 16.796875 -36.34375 Z M 4.25 -36.34375 "/></g></g></g><g fill="#004aad" fill-opacity="1"><g transform="translate(239.355663, 212.861177)"><g><path d="M 41.046875 -16.453125 L 14.671875 -16.453125 C 14.671875 -13.898438 15.5 -12.007812 17.15625 -10.78125 C 18.8125 -9.550781 20.609375 -8.9375 22.546875 -8.9375 C 24.578125 -8.9375 26.179688 -9.207031 27.359375 -9.75 C 28.546875 -10.289062 29.894531 -11.363281 31.40625 -12.96875 L 40.484375 -8.4375 C 36.703125 -2.101562 30.414062 1.0625 21.625 1.0625 C 16.132812 1.0625 11.425781 -0.8125 7.5 -4.5625 C 3.582031 -8.320312 1.625 -12.847656 1.625 -18.140625 C 1.625 -23.441406 3.582031 -27.984375 7.5 -31.765625 C 11.425781 -35.546875 16.132812 -37.4375 21.625 -37.4375 C 27.382812 -37.4375 32.070312 -35.769531 35.6875 -32.4375 C 39.300781 -29.101562 41.109375 -24.335938 41.109375 -18.140625 C 41.109375 -17.296875 41.085938 -16.734375 41.046875 -16.453125 Z M 15.03125 -23.390625 L 28.859375 -23.390625 C 28.566406 -25.285156 27.816406 -26.738281 26.609375 -27.75 C 25.410156 -28.769531 23.863281 -29.28125 21.96875 -29.28125 C 19.894531 -29.28125 18.242188 -28.734375 17.015625 -27.640625 C 15.785156 -26.554688 15.125 -25.140625 15.03125 -23.390625 Z M 15.03125 -23.390625 "/></g></g></g></svg>